<svg xmlns="http://www.w3.org/2000/svg" viewBox="16 22 216 38"><path fill="#C60524" d="M 41.707031 45.773438 C 41.515625 45.710938 40.816406 45.484375 40.664062 45.492188 C 40.539062 45.5 40.503906 45.769531 40.46875 45.898438 C 40.339844 46.371094 40.234375 47.050781 40.179688 47.542969 C 40.152344 47.761719 40.066406 48.777344 40.125 48.914062 C 40.152344 48.980469 40.199219 48.992188 40.253906 49.019531 C 40.535156 49.179688 41.085938 49.300781 41.425781 49.453125 C 42.261719 49.832031 43.40625 50.496094 43.792969 51.367188 C 45.050781 54.1875 41.5625 56.105469 39.78125 53.332031 C 38.300781 51.03125 38.875 46.597656 39.742188 44.082031 C 38.835938 43.726562 37.757812 43.222656 36.59375 42.523438 C 36.230469 43.492188 35.9375 44.488281 35.722656 45.492188 L 34.015625 45.492188 C 33.050781 41.039062 30.589844 36.699219 27.429688 34.71875 C 23.96875 32.550781 19.230469 33.53125 17.996094 37.703125 C 17.226562 40.3125 18.476562 43.191406 20.863281 44.460938 C 23.351562 45.785156 26.273438 45.46875 28.804688 44.511719 C 28.515625 43.378906 27.925781 42.3125 27.273438 41.339844 C 25.671875 41.8125 23.445312 42.261719 22.097656 40.972656 C 20.109375 39.082031 22.304688 36.195312 24.960938 37.417969 C 27.230469 38.464844 29.171875 41.730469 29.972656 44.015625 C 30.851562 46.519531 31.445312 51.007812 29.953125 53.332031 C 28.175781 56.105469 24.683594 54.1875 25.941406 51.367188 C 26.332031 50.496094 27.476562 49.832031 28.3125 49.453125 C 28.648438 49.300781 29.203125 49.179688 29.484375 49.019531 C 29.535156 48.988281 29.582031 48.980469 29.609375 48.914062 C 29.667969 48.773438 29.582031 47.761719 29.558594 47.539062 C 29.503906 47.050781 29.394531 46.371094 29.265625 45.898438 C 29.230469 45.769531 29.199219 45.5 29.070312 45.492188 C 28.917969 45.480469 28.222656 45.707031 28.027344 45.769531 C 24.679688 46.855469 21.667969 49.347656 22.140625 53.242188 C 22.851562 59.109375 30.644531 60 33.328125 54.769531 C 34.207031 53.0625 34.542969 50.941406 34.445312 48.714844 L 35.292969 48.714844 C 35.191406 50.941406 35.527344 53.0625 36.40625 54.769531 C 39.089844 60 46.886719 59.113281 47.59375 53.242188 C 48.066406 49.347656 45.058594 46.855469 41.707031 45.769531 Z M 41.707031 45.773438 "/><path fill="#C60524" d="M 35 24.265625 C 30.652344 24.207031 28.3125 28.445312 29.351562 32.398438 C 31.019531 38.714844 40.222656 45.132812 46.730469 43.992188 C 52.511719 42.976562 53.976562 35.261719 48.589844 32.839844 C 45.019531 31.234375 41.746094 33.371094 39.71875 36.25 C 39.601562 36.417969 39.179688 37.015625 39.144531 37.164062 C 39.113281 37.289062 39.359375 37.398438 39.472656 37.472656 C 39.882812 37.734375 40.5 38.039062 40.953125 38.238281 C 41.152344 38.328125 42.097656 38.710938 42.246094 38.695312 C 42.316406 38.6875 42.339844 38.648438 42.386719 38.605469 C 42.621094 38.386719 42.898438 37.894531 43.144531 37.613281 C 43.753906 36.925781 44.730469 36.03125 45.675781 35.917969 C 48.738281 35.550781 49.53125 39.457031 46.359375 40.335938 C 43.699219 41.074219 39.59375 39.171875 37.46875 37.589844 C 35.523438 36.144531 32.988281 33.320312 32.664062 30.839844 C 32.28125 27.933594 35.6875 26.699219 36.902344 29.15625 C 37.730469 30.828125 36.640625 32.824219 35.714844 34.210938 C 36.449219 35.128906 37.289062 36.003906 38.289062 36.621094 C 39.949219 34.484375 41.117188 31.785156 40.59375 29.015625 C 40.09375 26.351562 37.71875 24.304688 35 24.265625 Z M 35 24.265625 "/><path fill="currentColor" d="M 213.65625 51.289062 L 213.65625 34.140625 L 217.007812 34.140625 L 217.007812 41.265625 L 219.871094 41.265625 L 224.65625 34.140625 L 228.496094 34.140625 L 222.863281 42.273438 L 228.820312 51.289062 L 224.914062 51.289062 L 220.195312 44.226562 L 217.007812 44.226562 L 217.007812 51.289062 Z M 213.65625 51.289062 "/><path fill="currentColor" d="M 202.519531 51.484375 C 200.71875 51.484375 199.210938 51.117188 197.996094 50.378906 C 196.78125 49.640625 195.855469 48.621094 195.226562 47.320312 C 194.621094 45.996094 194.316406 44.476562 194.316406 42.761719 C 194.316406 41.027344 194.632812 39.496094 195.261719 38.175781 C 195.910156 36.851562 196.84375 35.808594 198.058594 35.050781 C 199.296875 34.289062 200.78125 33.910156 202.519531 33.910156 C 203.796875 33.910156 204.914062 34.148438 205.871094 34.628906 C 206.847656 35.082031 207.660156 35.722656 208.3125 36.546875 C 208.984375 37.351562 209.472656 38.261719 209.773438 39.28125 C 210.078125 40.300781 210.21875 41.375 210.199219 42.503906 C 210.175781 42.742188 210.15625 42.96875 210.132812 43.1875 C 210.132812 43.402344 210.121094 43.632812 210.101562 43.871094 L 197.703125 43.871094 C 197.765625 44.738281 197.984375 45.53125 198.351562 46.246094 C 198.742188 46.960938 199.285156 47.535156 199.980469 47.96875 C 200.671875 48.382812 201.53125 48.589844 202.550781 48.589844 C 203.113281 48.589844 203.65625 48.523438 204.175781 48.394531 C 204.71875 48.242188 205.199219 48.011719 205.609375 47.710938 C 206.042969 47.382812 206.347656 46.972656 206.519531 46.472656 L 209.90625 46.472656 C 209.625 47.621094 209.113281 48.578125 208.375 49.335938 C 207.660156 50.074219 206.78125 50.617188 205.738281 50.964844 C 204.71875 51.3125 203.644531 51.484375 202.519531 51.484375 Z M 197.765625 41.199219 L 206.878906 41.199219 C 206.855469 40.355469 206.660156 39.605469 206.292969 38.957031 C 205.925781 38.28125 205.414062 37.761719 204.761719 37.394531 C 204.113281 37.003906 203.332031 36.808594 202.421875 36.808594 C 201.421875 36.808594 200.585938 37.011719 199.914062 37.425781 C 199.261719 37.839844 198.753906 38.378906 198.386719 39.054688 C 198.039062 39.703125 197.832031 40.421875 197.765625 41.199219 Z M 197.765625 41.199219 "/><path fill="currentColor" d="M 176.980469 51.289062 L 176.980469 34.140625 L 184.203125 34.140625 C 184.941406 34.140625 185.679688 34.191406 186.417969 34.300781 C 187.175781 34.386719 187.859375 34.582031 188.46875 34.886719 C 189.097656 35.191406 189.597656 35.636719 189.964844 36.222656 C 190.355469 36.785156 190.550781 37.535156 190.550781 38.46875 C 190.550781 39.03125 190.464844 39.539062 190.289062 39.996094 C 190.117188 40.453125 189.867188 40.855469 189.542969 41.199219 C 189.238281 41.527344 188.847656 41.808594 188.371094 42.046875 C 189.453125 42.328125 190.234375 42.839844 190.714844 43.578125 C 191.210938 44.292969 191.460938 45.148438 191.460938 46.148438 C 191.460938 47.058594 191.289062 47.839844 190.941406 48.492188 C 190.59375 49.140625 190.128906 49.671875 189.542969 50.085938 C 188.957031 50.496094 188.292969 50.800781 187.554688 50.996094 C 186.820312 51.191406 186.058594 51.289062 185.277344 51.289062 Z M 180.398438 48.359375 L 184.691406 48.359375 C 185.300781 48.359375 185.851562 48.304688 186.351562 48.199219 C 186.871094 48.066406 187.285156 47.839844 187.589844 47.515625 C 187.914062 47.1875 188.078125 46.742188 188.078125 46.179688 C 188.078125 45.59375 187.945312 45.148438 187.6875 44.84375 C 187.425781 44.519531 187.089844 44.292969 186.675781 44.164062 C 186.265625 44.03125 185.820312 43.957031 185.34375 43.933594 C 184.867188 43.890625 184.398438 43.871094 183.945312 43.871094 L 180.398438 43.871094 Z M 180.398438 41.332031 L 182.933594 41.332031 C 183.324219 41.332031 183.769531 41.308594 184.269531 41.265625 C 184.769531 41.199219 185.246094 41.09375 185.703125 40.941406 C 186.179688 40.789062 186.558594 40.570312 186.839844 40.289062 C 187.144531 39.984375 187.296875 39.574219 187.296875 39.054688 C 187.296875 38.359375 187.101562 37.882812 186.710938 37.621094 C 186.339844 37.339844 185.898438 37.175781 185.375 37.132812 C 184.855469 37.066406 184.34375 37.035156 183.847656 37.035156 L 180.398438 37.035156 Z M 180.398438 41.332031 "/><path fill="currentColor" d="M 148.503906 51.289062 L 148.503906 34.140625 L 151.855469 34.140625 L 151.855469 46.277344 C 152.007812 46.019531 152.203125 45.734375 152.441406 45.433594 C 152.679688 45.105469 152.863281 44.847656 152.996094 44.652344 L 160.835938 34.140625 L 163.960938 34.140625 L 163.960938 51.289062 L 160.609375 51.289062 L 160.609375 39.214844 C 160.4375 39.5 160.25 39.78125 160.054688 40.0625 C 159.859375 40.324219 159.675781 40.5625 159.503906 40.777344 L 151.660156 51.289062 Z M 156.476562 32.058594 C 154.699219 32.058594 153.296875 31.667969 152.277344 30.886719 C 151.28125 30.082031 150.769531 28.898438 150.75 27.339844 L 153.679688 27.339844 C 153.722656 28.117188 153.992188 28.683594 154.492188 29.03125 C 154.992188 29.378906 155.664062 29.550781 156.507812 29.550781 C 157.355469 29.550781 158.027344 29.378906 158.527344 29.03125 C 159.027344 28.683594 159.296875 28.117188 159.339844 27.339844 L 162.269531 27.339844 C 162.269531 28.359375 162.03125 29.226562 161.554688 29.941406 C 161.078125 30.636719 160.402344 31.167969 159.535156 31.535156 C 158.691406 31.882812 157.671875 32.058594 156.476562 32.058594 Z M 156.476562 32.058594 "/><path fill="currentColor" d="M 125.683594 51.289062 L 125.683594 34.140625 L 129.101562 34.140625 L 129.101562 40.320312 L 132 40.320312 C 133.019531 40.320312 133.941406 40.410156 134.765625 40.582031 C 135.589844 40.757812 136.292969 41.050781 136.878906 41.460938 C 137.488281 41.851562 137.953125 42.394531 138.277344 43.089844 C 138.605469 43.761719 138.765625 44.617188 138.765625 45.660156 C 138.765625 46.65625 138.582031 47.523438 138.214844 48.261719 C 137.867188 48.980469 137.378906 49.566406 136.75 50.019531 C 136.121094 50.453125 135.382812 50.78125 134.535156 50.996094 C 133.710938 51.191406 132.824219 51.289062 131.867188 51.289062 Z M 129.101562 48.359375 L 130.144531 48.359375 C 130.835938 48.359375 131.488281 48.339844 132.097656 48.296875 C 132.726562 48.25 133.277344 48.152344 133.753906 48.003906 C 134.253906 47.851562 134.644531 47.601562 134.925781 47.253906 C 135.230469 46.886719 135.382812 46.386719 135.382812 45.757812 C 135.382812 45.171875 135.261719 44.714844 135.023438 44.390625 C 134.808594 44.042969 134.503906 43.78125 134.113281 43.609375 C 133.746094 43.433594 133.332031 43.328125 132.875 43.285156 C 132.421875 43.238281 131.964844 43.21875 131.511719 43.21875 L 129.101562 43.21875 Z M 141.046875 51.289062 L 141.046875 34.140625 L 144.398438 34.140625 L 144.398438 51.289062 Z M 141.046875 51.289062 "/><path fill="currentColor" d="M 107.695312 51.289062 L 107.695312 34.140625 L 114.921875 34.140625 C 115.660156 34.140625 116.394531 34.191406 117.132812 34.300781 C 117.894531 34.386719 118.578125 34.582031 119.183594 34.886719 C 119.8125 35.191406 120.3125 35.636719 120.679688 36.222656 C 121.070312 36.785156 121.265625 37.535156 121.265625 38.46875 C 121.265625 39.03125 121.179688 39.539062 121.007812 39.996094 C 120.832031 40.453125 120.582031 40.855469 120.257812 41.199219 C 119.953125 41.527344 119.5625 41.808594 119.085938 42.046875 C 120.171875 42.328125 120.953125 42.839844 121.429688 43.578125 C 121.929688 44.292969 122.179688 45.148438 122.179688 46.148438 C 122.179688 47.058594 122.003906 47.839844 121.65625 48.492188 C 121.308594 49.140625 120.84375 49.671875 120.257812 50.085938 C 119.671875 50.496094 119.011719 50.800781 118.273438 50.996094 C 117.535156 51.191406 116.777344 51.289062 115.996094 51.289062 Z M 111.113281 48.359375 L 115.410156 48.359375 C 116.015625 48.359375 116.570312 48.304688 117.070312 48.199219 C 117.589844 48.066406 118 47.839844 118.304688 47.515625 C 118.632812 47.1875 118.792969 46.742188 118.792969 46.179688 C 118.792969 45.59375 118.664062 45.148438 118.402344 44.84375 C 118.144531 44.519531 117.804688 44.292969 117.394531 44.164062 C 116.980469 44.03125 116.539062 43.957031 116.058594 43.933594 C 115.582031 43.890625 115.117188 43.871094 114.660156 43.871094 L 111.113281 43.871094 Z M 111.113281 41.332031 L 113.652344 41.332031 C 114.042969 41.332031 114.488281 41.308594 114.984375 41.265625 C 115.484375 41.199219 115.960938 41.09375 116.417969 40.941406 C 116.894531 40.789062 117.273438 40.570312 117.558594 40.289062 C 117.859375 39.984375 118.011719 39.574219 118.011719 39.054688 C 118.011719 38.359375 117.816406 37.882812 117.425781 37.621094 C 117.058594 37.339844 116.613281 37.175781 116.09375 37.132812 C 115.570312 37.066406 115.0625 37.035156 114.5625 37.035156 L 111.113281 37.035156 Z M 111.113281 41.332031 "/><path fill="currentColor" d="M 95.957031 51.484375 C 94.179688 51.484375 92.671875 51.125 91.433594 50.410156 C 90.199219 49.671875 89.253906 48.644531 88.601562 47.320312 C 87.972656 45.996094 87.660156 44.464844 87.660156 42.730469 C 87.660156 40.972656 87.972656 39.445312 88.601562 38.140625 C 89.253906 36.820312 90.199219 35.789062 91.433594 35.050781 C 92.671875 34.289062 94.191406 33.910156 95.992188 33.910156 C 97.769531 33.910156 99.277344 34.289062 100.515625 35.050781 C 101.75 35.789062 102.683594 36.820312 103.3125 38.140625 C 103.941406 39.464844 104.257812 41.003906 104.257812 42.761719 C 104.257812 44.476562 103.929688 45.996094 103.28125 47.320312 C 102.652344 48.644531 101.71875 49.671875 100.480469 50.410156 C 99.265625 51.125 97.757812 51.484375 95.957031 51.484375 Z M 95.957031 48.492188 C 97.128906 48.492188 98.074219 48.230469 98.789062 47.710938 C 99.527344 47.1875 100.070312 46.496094 100.417969 45.628906 C 100.761719 44.757812 100.9375 43.804688 100.9375 42.761719 C 100.9375 41.722656 100.761719 40.765625 100.417969 39.898438 C 100.070312 39.007812 99.527344 38.304688 98.789062 37.785156 C 98.074219 37.242188 97.128906 36.96875 95.957031 36.96875 C 94.808594 36.96875 93.863281 37.242188 93.125 37.785156 C 92.390625 38.304688 91.847656 39 91.5 39.867188 C 91.175781 40.734375 91.011719 41.699219 91.011719 42.761719 C 91.011719 43.804688 91.175781 44.757812 91.5 45.628906 C 91.847656 46.496094 92.390625 47.1875 93.125 47.710938 C 93.863281 48.230469 94.808594 48.492188 95.957031 48.492188 Z M 95.957031 48.492188 "/><path fill="currentColor" d="M 69.589844 51.289062 L 69.589844 34.140625 L 72.941406 34.140625 L 72.941406 41.363281 L 80.851562 41.363281 L 80.851562 34.140625 L 84.203125 34.140625 L 84.203125 51.289062 L 80.851562 51.289062 L 80.851562 44.324219 L 72.941406 44.324219 L 72.941406 51.289062 Z M 69.589844 51.289062 "/></svg>